<?xml version="1.0" encoding="utf-8"?>
<!-- Generator: Adobe Illustrator 22.1.0, SVG Export Plug-In . SVG Version: 6.00 Build 0)  -->
<svg version="1.1" id="DESIGNED_BY_FREEPIK" xmlns="http://www.w3.org/2000/svg" xmlns:xlink="http://www.w3.org/1999/xlink"
	 x="0px" y="0px" width="592.3px" height="273.3px" viewBox="0 0 592.3 273.3" style="enable-background:new 0 0 592.3 273.3;"
	 xml:space="preserve">
<style type="text/css">
	.st0{opacity:0.35;}
	.st1{fill:#C3ECFE;}
	.st2{fill:none;stroke:#C3ECFE;stroke-width:2.1897;stroke-miterlimit:10;}
	.st3{fill:#CCF3FF;}
	.st4{fill:none;stroke:#A1DBFF;stroke-width:2.1897;stroke-miterlimit:10;}
	.st5{fill:none;stroke:#A1DBFF;stroke-width:2.1897;stroke-miterlimit:10;stroke-dasharray:5.5388,5.5388;}
	.st6{fill:none;stroke:#A1DBFF;stroke-width:2.0564;stroke-miterlimit:10;stroke-dasharray:2.9378,2.9378,0;}
	.st7{fill:none;stroke:#A1DBFF;stroke-width:2.1897;stroke-miterlimit:10;stroke-dasharray:5.4742;}
	.st8{fill:#FFC800;}
	.st9{opacity:0.28;fill:#FFC800;}
	.st10{fill:#1B227A;}
	.st11{fill:#005B58;}
	.st12{opacity:0.28;fill:#005B58;}
	.st13{fill:#E8505B;}
	.st14{fill:#3B2539;}
	.st15{opacity:0.32;fill:#3B2539;}
	.st16{fill:#FED103;}
	.st17{fill:#C7EFFF;}
	.st18{fill:#FFFFFF;}
	.st19{fill:#727272;}
	.st20{fill:#484849;}
	.st21{opacity:0.35;fill:#C3ECFE;}
	.st22{fill:#E7B090;}
	.st23{fill:#F7E8C4;}
	.st24{opacity:0.5;fill:#E8505B;}
	.st25{opacity:0.25;fill:#0964AF;}
	.st26{opacity:0.19;fill:#0964AF;}
	.st27{opacity:0.5;fill:#E7B090;}
	.st28{fill:#F4BE84;}
	.st29{fill:#9299A5;}
	.st30{fill:#B0B6C1;}
	.st31{opacity:0.2;fill:#1B227A;}
	.st32{fill:#D1374A;}
	.st33{fill:none;stroke:#059BAF;stroke-width:2.0728;stroke-miterlimit:10;}
	.st34{fill:#059BAF;}
	.st35{fill:none;stroke:#FFFFFF;stroke-width:2.1897;stroke-linecap:round;stroke-linejoin:round;stroke-miterlimit:10;}
	.st36{fill:none;stroke:#A1DBFF;stroke-width:2.0404;stroke-miterlimit:10;stroke-dasharray:2.9149,2.9149,0;}
	.st37{fill:none;stroke:#FFFFFF;stroke-width:2.0566;stroke-miterlimit:10;}
	.st38{fill:none;stroke:#FFFFFF;stroke-width:1.0283;stroke-linecap:round;stroke-linejoin:round;stroke-miterlimit:10;}
	.st39{opacity:0.55;}
	.st40{fill:#DBE2E8;}
	.st41{fill:none;stroke:#FFFFFF;stroke-width:2.7598;stroke-miterlimit:10;}
	.st42{fill:none;stroke:#FFFFFF;stroke-width:1.3799;stroke-linecap:round;stroke-linejoin:round;stroke-miterlimit:10;}
	.st43{fill:#FFE1B0;}
	.st44{fill:none;stroke:#FFFFFF;stroke-width:2.0566;stroke-linecap:round;stroke-linejoin:round;stroke-miterlimit:10;}
	.st45{opacity:0.2;}
	.st46{fill:#FFB839;}
	.st47{fill:#3C3C3C;}
	.st48{fill:#D3D3D3;}
	.st49{fill:#5B5B5B;}
	.st50{fill:#7C7C7C;}
	.st51{fill:#F39F86;}
	.st52{fill:#3A3A3A;}
	.st53{fill:#062F44;}
	.st54{fill:#16405A;}
	.st55{fill:#A9E7FF;}
	.st56{fill:none;stroke:#1B227A;stroke-width:4.8875;stroke-miterlimit:10;}
	.st57{fill:#FFBE9D;}
	.st58{fill:none;stroke:#059BAF;stroke-width:2.0566;stroke-miterlimit:10;}
	.st59{fill:none;stroke:#FFFFFF;stroke-width:2.1726;stroke-linecap:round;stroke-linejoin:round;stroke-miterlimit:10;}
	.st60{fill:none;stroke:#A1DBFF;stroke-width:2.1948;stroke-miterlimit:10;stroke-dasharray:5.487;}
	.st61{fill:none;stroke:#A1DBFF;stroke-width:2.0613;stroke-miterlimit:10;stroke-dasharray:2.9447,2.9447,0;}
	.st62{fill:url(#SVGID_1_);}
	.st63{clip-path:url(#SVGID_4_);}
	.st64{fill:url(#SVGID_5_);}
	.st65{fill:url(#SVGID_6_);}
	.st66{fill:url(#SVGID_7_);}
	.st67{fill:url(#SVGID_8_);}
	.st68{fill:url(#SVGID_9_);}
	.st69{fill:url(#SVGID_10_);}
	.st70{fill:#F1F2F2;}
	.st71{fill:#1C2426;}
	.st72{fill:url(#SVGID_11_);}
	.st73{fill:url(#SVGID_12_);}
	.st74{fill:#808080;}
	.st75{fill:url(#SVGID_13_);}
	.st76{fill:#212121;}
	.st77{fill:#303030;}
	.st78{fill:#C9C9C9;}
	.st79{fill:url(#SVGID_14_);}
	.st80{fill:url(#SVGID_15_);}
	.st81{fill:url(#SVGID_16_);}
	.st82{fill:url(#SVGID_17_);}
	.st83{fill:url(#SVGID_18_);}
	.st84{fill:url(#SVGID_19_);}
	.st85{opacity:0.2;fill:#FFBE9D;}
	.st86{opacity:0.2;fill:#C95427;}
	.st87{fill-rule:evenodd;clip-rule:evenodd;fill:url(#SVGID_20_);}
	.st88{fill-rule:evenodd;clip-rule:evenodd;fill:url(#SVGID_21_);}
	.st89{fill-rule:evenodd;clip-rule:evenodd;fill:#F49921;}
	.st90{fill-rule:evenodd;clip-rule:evenodd;fill:#FFFFFF;}
	.st91{fill-rule:evenodd;clip-rule:evenodd;fill:#FFDF13;}
	.st92{opacity:0.5;}
	.st93{clip-path:url(#SVGID_23_);fill-rule:evenodd;clip-rule:evenodd;fill:url(#SVGID_24_);}
	.st94{clip-path:url(#SVGID_23_);fill-rule:evenodd;clip-rule:evenodd;fill:#FFFFFF;}
	.st95{fill-rule:evenodd;clip-rule:evenodd;fill:#404041;}
	.st96{fill:url(#SVGID_25_);}
	.st97{fill:#404041;stroke:#404041;stroke-width:0.3109;stroke-linecap:round;stroke-linejoin:round;stroke-miterlimit:10;}
	.st98{fill:#DCE6EF;}
	.st99{opacity:0.45;}
	.st100{clip-path:url(#SVGID_27_);fill-rule:evenodd;clip-rule:evenodd;fill:url(#SVGID_28_);}
	.st101{fill:url(#SVGID_29_);}
	.st102{clip-path:url(#SVGID_31_);fill-rule:evenodd;clip-rule:evenodd;fill:url(#SVGID_32_);}
	.st103{fill:url(#SVGID_33_);}
	.st104{clip-path:url(#SVGID_35_);fill-rule:evenodd;clip-rule:evenodd;fill:url(#SVGID_36_);}
	.st105{fill:url(#SVGID_37_);}
	.st106{fill:#363B4C;}
	.st107{opacity:0.3;fill:#FFBE9D;}
	.st108{opacity:0.2;fill:#324C6B;}
	.st109{opacity:0.2;fill:#484849;}
	.st110{fill:none;stroke:#059BAF;stroke-width:2.0776;stroke-miterlimit:10;}
	.st111{fill:none;stroke:#FFFFFF;stroke-width:2.1948;stroke-linecap:round;stroke-linejoin:round;stroke-miterlimit:10;}
	.st112{clip-path:url(#SVGID_39_);fill-rule:evenodd;clip-rule:evenodd;fill:url(#SVGID_40_);}
	.st113{fill:url(#SVGID_41_);}
	.st114{fill:none;stroke:#A1DBFF;stroke-width:1.9087;stroke-miterlimit:10;stroke-dasharray:2.7268,2.7268,0;}
	.st115{fill:none;stroke:#FFFFFF;stroke-width:0.3483;stroke-linecap:round;stroke-linejoin:round;stroke-miterlimit:10;}
	.st116{fill:none;stroke:#A1DBFF;stroke-width:2.0324;stroke-miterlimit:10;stroke-dasharray:5.081;}
	.st117{fill:#CFE2FF;}
	.st118{fill:#F3F8FF;}
	.st119{fill:#9DB5E2;}
	.st120{fill:#91A5C6;}
	.st121{fill:#434D5B;}
	.st122{fill:#ACC3EF;}
	.st123{opacity:0.2;fill:#91A5C6;}
	.st124{opacity:0.51;}
	.st125{fill:#6234B9;}
	.st126{opacity:0.4;}
	.st127{opacity:0.51;fill:#6234B9;}
	.st128{fill:#170D54;}
	.st129{opacity:0.26;}
	.st130{opacity:0.3;fill:#FF8720;}
	.st131{opacity:0.44;fill:#1B227A;}
	.st132{opacity:0.5;fill:#FFBE9D;}
	.st133{opacity:0.6;fill:#FFC800;}
	.st134{fill:#C494C0;}
	.st135{fill:#726658;}
	.st136{opacity:0.18;fill:#5760D0;}
	.st137{opacity:0.17;fill:#5760D0;}
	.st138{opacity:0.38;fill:#FFC800;}
	.st139{opacity:0.25;fill:#5760D0;}
	.st140{fill:#D7D7FF;}
	.st141{fill:#0058B6;}
	.st142{opacity:0.6;fill:#EFEEFF;}
	.st143{clip-path:url(#SVGID_43_);}
	.st144{fill:#BDD8E5;}
	.st145{opacity:0.44;fill:#BDD8E5;}
	.st146{opacity:0.27;fill:#BDD8E5;}
	.st147{opacity:0.53;fill:#471E32;}
	.st148{opacity:0.53;}
	.st149{fill:#471E32;}
	.st150{fill:#164367;}
	.st151{opacity:0.44;fill:#164367;}
	.st152{opacity:0.53;fill:#164367;}
	.st153{fill:#FD8900;}
	.st154{fill:#5760D0;}
	.st155{opacity:0.42;fill:#5760D0;}
	.st156{opacity:0.38;fill:#1B227A;}
	.st157{opacity:0.47;fill:#059BAF;}
	.st158{fill:#8494AF;}
	.st159{fill:#B4C1D1;}
	.st160{fill:#9E0017;}
	.st161{fill:#D10000;}
	.st162{fill:#0D2E99;}
	.st163{fill:none;stroke:#059BAF;stroke-width:1.9239;stroke-miterlimit:10;}
	.st164{fill:none;stroke:#FFFFFF;stroke-width:2.0324;stroke-linecap:round;stroke-linejoin:round;stroke-miterlimit:10;}
	.st165{opacity:0.8;fill:#C7EFFF;}
	.st166{opacity:0.65;fill:#C7EFFF;}
	.st167{fill:none;stroke:#A1DBFF;stroke-width:1.8192;stroke-miterlimit:10;stroke-dasharray:2.5988,2.5988,0;}
	.st168{fill:#000F66;}
	.st169{fill:#EFC206;}
	.st170{fill:none;stroke:#059BAF;stroke-width:1.8336;stroke-miterlimit:10;}
	.st171{fill:none;stroke:#FFFFFF;stroke-width:1.937;stroke-linecap:round;stroke-linejoin:round;stroke-miterlimit:10;}
	.st172{fill:#DCDCDC;}
	.st173{fill:#C8C8C8;}
	.st174{fill:#BEBEBE;}
	.st175{fill:#D2D2D2;}
	.st176{fill:#E1E1E1;}
	.st177{fill:#AFDEEF;}
	.st178{fill:none;stroke:#A1DBFF;stroke-width:1.9316;stroke-miterlimit:10;}
	.st179{fill:none;stroke:#A1DBFF;stroke-width:1.9316;stroke-miterlimit:10;stroke-dasharray:4.8859,4.8859;}
	.st180{fill:none;stroke:#FFFFFF;stroke-width:1.9316;stroke-linecap:round;stroke-linejoin:round;stroke-miterlimit:10;}
	.st181{fill:#9BDFFF;}
	.st182{fill:#C2EBFF;}
	.st183{fill:#E9E8EE;}
	.st184{fill:#E8B100;}
	.st185{opacity:0.15;}
	.st186{fill:none;stroke:#0964AF;stroke-width:4.4814;stroke-linecap:round;stroke-linejoin:round;stroke-miterlimit:10;}
	.st187{fill:#E5C0AE;}
	.st188{fill:#F2A181;}
	.st189{opacity:0.2;fill:#F2A181;}
	.st190{fill-rule:evenodd;clip-rule:evenodd;fill:url(#SVGID_44_);}
	.st191{fill-rule:evenodd;clip-rule:evenodd;fill:url(#SVGID_45_);}
	.st192{clip-path:url(#SVGID_47_);fill-rule:evenodd;clip-rule:evenodd;fill:url(#SVGID_48_);}
	.st193{clip-path:url(#SVGID_47_);fill-rule:evenodd;clip-rule:evenodd;fill:#FFFFFF;}
	.st194{fill:url(#SVGID_49_);}
	.st195{fill:#404041;stroke:#404041;stroke-width:0.1429;stroke-linecap:round;stroke-linejoin:round;stroke-miterlimit:10;}
	.st196{fill:none;stroke:#A1DBFF;stroke-width:1.8241;stroke-miterlimit:10;}
	.st197{fill:none;stroke:#A1DBFF;stroke-width:1.8241;stroke-miterlimit:10;stroke-dasharray:4.6138,4.6138;}
	.st198{opacity:0.25;fill:#FFFFFF;}
	.st199{opacity:0.19;fill:#FFFFFF;}
	.st200{fill:none;stroke:#A1DBFF;stroke-width:1.7131;stroke-miterlimit:10;stroke-dasharray:2.4473,2.4473,0;}
	.st201{fill:none;stroke:#059BAF;stroke-width:1.7267;stroke-miterlimit:10;}
	.st202{fill:none;stroke:#FFFFFF;stroke-width:1.8241;stroke-linecap:round;stroke-linejoin:round;stroke-miterlimit:10;}
	.st203{fill:#AE9AD9;}
	.st204{fill:#F0A79E;}
	.st205{fill:#F5B1A8;}
	.st206{clip-path:url(#SVGID_51_);}
	.st207{fill:#F8F1FC;}
	.st208{fill:#C9C3CC;}
	.st209{opacity:0.35;fill:#E8E8E8;}
	.st210{fill:#E2D2CA;}
	.st211{fill:#CCBDB7;}
	.st212{fill:#FFB555;}
	.st213{fill:#424773;}
	.st214{fill:#323657;}
	.st215{fill:#F5F7FF;}
	.st216{fill:none;stroke:#C3ECFE;stroke-width:1.8893;stroke-miterlimit:10;}
	.st217{fill:none;stroke:#A1DBFF;stroke-width:1.4215;stroke-miterlimit:10;stroke-dasharray:3.5537;}
	.st218{fill:none;stroke:#059BAF;stroke-width:1.3456;stroke-miterlimit:10;}
	.st219{fill:#9D9D9C;}
	.st220{fill:#272726;}
	.st221{opacity:0.75;fill:#FFFFFF;}
	.st222{opacity:0.1;fill:#050504;}
	.st223{fill:none;stroke:#FFFFFF;stroke-width:1.4215;stroke-linecap:round;stroke-linejoin:round;stroke-miterlimit:10;}
	.st224{fill:#FFCCB0;}
	.st225{fill:#A6DDFF;}
	.st226{opacity:0.25;}
	.st227{fill:#0964AF;}
	.st228{fill:#3357BC;}
	.st229{fill:#12195B;}
	.st230{fill:#9B999F;}
	.st231{fill:#423F40;}
	.st232{fill:#D8D9DD;}
	.st233{clip-path:url(#SVGID_53_);fill:#E8505B;}
	.st234{fill:none;stroke:#059BAF;stroke-width:1.5701;stroke-miterlimit:10;}
	.st235{fill:none;stroke:#C3ECFE;stroke-width:12.4927;stroke-miterlimit:10;}
	.st236{fill:#D1D2D4;}
	.st237{fill:none;stroke:#414042;stroke-width:0.503;stroke-miterlimit:10;}
	.st238{fill:#9CC9FF;}
	.st239{fill:none;stroke:#1B227A;stroke-width:12.8997;stroke-miterlimit:10;}
	.st240{fill:none;stroke:#FFFFFF;stroke-width:1.8018;stroke-linecap:round;stroke-linejoin:round;stroke-miterlimit:10;}
	.st241{fill:none;stroke:#A1DBFF;stroke-width:2.1206;stroke-miterlimit:10;}
	.st242{fill:none;stroke:#A1DBFF;stroke-width:2.1206;stroke-miterlimit:10;stroke-dasharray:5.364,5.364;}
	.st243{opacity:0.63;fill:#D1D3D4;}
	.st244{fill:#492107;}
	.st245{fill:#C46600;}
	.st246{fill:#DB7700;}
	.st247{fill:#FFE1BD;}
	.st248{fill:#E8C5A0;}
	.st249{fill:#B3C5CE;}
	.st250{fill:#E8F1F8;}
	.st251{fill:#D4DEDF;}
	.st252{fill:#4C2E1E;}
	.st253{fill:#282C3B;}
	.st254{fill:#08085E;}
	.st255{fill:#B4BCC5;}
</style>
<g>
	<g>
		<g>
			<path class="st1" d="M313.2,54.7H185.4c-3,0-5.5-2.5-5.5-5.5V18.3c0-3,2.5-5.5,5.5-5.5h127.8c3,0,5.5,2.5,5.5,5.5v30.9
				C318.8,52.2,316.3,54.7,313.2,54.7z"/>
		</g>
		<polygon class="st1" points="278.2,49.3 286.4,66.6 294.1,50.5 		"/>
	</g>
	<circle class="st234" cx="440.3" cy="75.9" r="5.6"/>
	<circle class="st234" cx="236.4" cy="91.4" r="5.6"/>
	<path class="st34" d="M411.7,10.5h-4.2V6.3c0-0.7-0.5-1.2-1.2-1.2c-0.7,0-1.2,0.5-1.2,1.2v4.2H401c-0.7,0-1.2,0.5-1.2,1.2
		s0.5,1.2,1.2,1.2h4.2v4.2c0,0.7,0.5,1.2,1.2,1.2c0.7,0,1.2-0.5,1.2-1.2v-4.2h4.2c0.7,0,1.2-0.5,1.2-1.2S412.4,10.5,411.7,10.5z"/>
	<g>
		
			<ellipse transform="matrix(0.844 -0.5363 0.5363 0.844 -50.6261 100.4263)" class="st235" cx="147.3" cy="137.2" rx="47" ry="47"/>
		<line class="st235" x1="179.2" y1="173.7" x2="249.2" y2="258.2"/>
	</g>
	<path class="st34" d="M298.1,111.2H294v-4.2c0-0.7-0.5-1.2-1.2-1.2s-1.2,0.5-1.2,1.2v4.2h-4.2c-0.7,0-1.2,0.5-1.2,1.2
		c0,0.7,0.5,1.2,1.2,1.2h4.2v4.2c0,0.7,0.5,1.2,1.2,1.2s1.2-0.5,1.2-1.2v-4.2h4.2c0.7,0,1.2-0.5,1.2-1.2
		C299.3,111.8,298.8,111.2,298.1,111.2z"/>
	<path class="st34" d="M586.4,198h-4.2v-4.2c0-0.7-0.5-1.2-1.2-1.2c-0.7,0-1.2,0.5-1.2,1.2v4.2h-4.2c-0.7,0-1.2,0.5-1.2,1.2
		c0,0.7,0.5,1.2,1.2,1.2h4.2v4.2c0,0.7,0.5,1.2,1.2,1.2c0.7,0,1.2-0.5,1.2-1.2v-4.2h4.2c0.7,0,1.2-0.5,1.2-1.2
		C587.6,198.5,587,198,586.4,198z"/>
	<g>
		<g>
			<g>
				<path class="st19" d="M29,12.7h101.7c10.9,0,19.7,8.8,19.7,19.7v213.7c0,10.9-8.8,19.7-19.7,19.7H29c-10.9,0-19.7-8.8-19.7-19.7
					V32.5C9.3,21.6,18.1,12.7,29,12.7z"/>
				
					<rect x="15.2" y="40.5" transform="matrix(-1 -1.224647e-16 1.224647e-16 -1 159.6888 278.6765)" class="st18" width="129.3" height="197.6"/>
				<path class="st20" d="M59.5,27.9L59.5,27.9c0-1,0.8-1.8,1.8-1.8h37.1c1,0,1.8,0.8,1.8,1.8l0,0c0,1-0.8,1.8-1.8,1.8H61.3
					C60.3,29.7,59.5,28.9,59.5,27.9z"/>
				
					<ellipse transform="matrix(0.1985 -0.9801 0.9801 0.1985 -182.0334 279.4601)" class="st20" cx="79.8" cy="251" rx="7.8" ry="7.8"/>
			</g>
			<rect x="15.2" y="88.7" class="st1" width="129.3" height="138.2"/>
			<rect x="48.3" y="58.4" class="st236" width="63.8" height="4.9"/>
			<rect x="48.3" y="67.2" class="st236" width="36.8" height="3.5"/>
			
				<ellipse transform="matrix(0.7071 -0.7071 0.7071 0.7071 -35.6566 41.3392)" class="st236" cx="32.1" cy="63.7" rx="10.1" ry="10.1"/>
			<path class="st236" d="M127,60.6c0,0.9-0.7,1.6-1.6,1.6c-0.9,0-1.6-0.7-1.6-1.6c0-0.9,0.7-1.6,1.6-1.6
				C126.3,58.9,127,59.7,127,60.6z M130.7,58.9c-0.9,0-1.6,0.7-1.6,1.6c0,0.9,0.7,1.6,1.6,1.6c0.9,0,1.6-0.7,1.6-1.6
				C132.4,59.7,131.6,58.9,130.7,58.9z M136.1,58.9c-0.9,0-1.6,0.7-1.6,1.6c0,0.9,0.7,1.6,1.6,1.6c0.9,0,1.6-0.7,1.6-1.6
				C137.7,59.7,137,58.9,136.1,58.9z"/>
			<g>
				<defs>
					
						<ellipse id="SVGID_54_" transform="matrix(0.7071 -0.7071 0.7071 0.7071 -35.6566 41.3392)" cx="32.1" cy="63.7" rx="10.1" ry="10.1"/>
				</defs>
				<clipPath id="SVGID_1_">
					<use xlink:href="#SVGID_54_"  style="overflow:visible;"/>
				</clipPath>
			</g>
		</g>
		<rect x="22.5" y="100.2" class="st16" width="114.7" height="32.8"/>
		<rect x="22.5" y="133" class="st18" width="114.7" height="83.6"/>
		<g>
			<line class="st237" x1="127.8" y1="103.9" x2="132.9" y2="108.9"/>
			<line class="st237" x1="132.9" y1="103.9" x2="127.8" y2="108.9"/>
		</g>
		<g>
			<g>
				<g>
					<g>
						<rect x="35.6" y="189.2" class="st162" width="6.4" height="6.4"/>
					</g>
				</g>
			</g>
			<g>
				<g>
					<g>
						<g>
							<rect x="35.6" y="200.4" class="st16" width="6.4" height="6.4"/>
						</g>
					</g>
				</g>
			</g>
			<g>
				<g>
					<g>
						<rect x="43.7" y="203.1" class="st238" width="33" height="3.6"/>
					</g>
				</g>
			</g>
			<g>
				<g>
					<g>
						<rect x="43.7" y="192" class="st238" width="33" height="3.6"/>
					</g>
				</g>
			</g>
			<g>
				<g>
					<g>
						<rect x="43.7" y="173" class="st238" width="80.5" height="3.6"/>
					</g>
				</g>
			</g>
			<g>
				<g>
					<g>
						<rect x="43.7" y="162.6" class="st238" width="80.5" height="3.6"/>
					</g>
				</g>
			</g>
			<g>
				<g>
					<g>
						<rect x="43.7" y="152.3" class="st238" width="80.5" height="3.6"/>
					</g>
				</g>
			</g>
			<g>
				<g>
					<g>
						<rect x="43.7" y="141.9" class="st238" width="80.5" height="3.6"/>
					</g>
				</g>
			</g>
			<g>
				<g>
					<g>
						<rect x="83" y="189.2" class="st162" width="6.4" height="6.4"/>
					</g>
				</g>
			</g>
			<g>
				<g>
					<g>
						<g>
							<rect x="83" y="200.4" class="st16" width="6.4" height="6.4"/>
						</g>
					</g>
				</g>
			</g>
			<g>
				<g>
					<g>
						<rect x="91.1" y="203.1" class="st238" width="33" height="3.6"/>
					</g>
				</g>
			</g>
			<g>
				<g>
					<g>
						<rect x="91.1" y="192" class="st238" width="33" height="3.6"/>
					</g>
				</g>
			</g>
		</g>
	</g>
	<g>
		
			<ellipse transform="matrix(0.844 -0.5363 0.5363 0.844 -46.8996 100.1942)" class="st239" cx="148.8" cy="130.7" rx="48.5" ry="48.5"/>
		<line class="st239" x1="181.7" y1="168.3" x2="254" y2="255.6"/>
	</g>
	<g>
		<path class="st34" d="M554,55.4c-1.7,4.4-6.7,6.5-11,4.7c-4.4-1.7-6.5-6.7-4.7-11c1.7-4.4,6.7-6.5,11-4.7
			C553.6,46.1,555.7,51,554,55.4z"/>
		<polyline class="st240" points="542.5,51.2 544.4,55.5 550.7,51.5 		"/>
	</g>
	<path class="st34" d="M454.9,218.2c0,2.2-1.8,4-4,4c-2.2,0-4-1.8-4-4c0-2.2,1.8-4,4-4C453.1,214.2,454.9,216,454.9,218.2z"/>
	<g>
		<g>
			<path class="st241" d="M361.9,72.2c0.2-0.9,0.3-1.7,0.6-2.6"/>
			<path class="st242" d="M364,64.4c7.1-19.5,27.9-39.3,60.4-32.9C448.1,36.3,455,58.2,468,72c9.7,10.3,23.2,18.5,28,33.3
				c11.1,34-1.5,71.6-25.6,84.1c-13.3,6.9-47,5-64.5-0.5"/>
			<path class="st241" d="M403.4,188.1c-0.9-0.3-1.7-0.7-2.5-1"/>
		</g>
	</g>
	<g>
		<g>
			<path class="st243" d="M287,243.2c0,0,0.5,19.4,10.3,19.4c9.8,0,27.9-11.7,30.6-10.6c2.7,1.1,25.8,13.2,28.3,12.7
				c2.5-0.4,1.9-3.9,4.8-4.3c2.9-0.4,35.6,18,42.1,3.6c3.9-8.8-14.6-12-14.6-12s21.5-24.2,27-43.2C421.1,189.8,287,243.2,287,243.2z
				"/>
			<g>
				<path class="st128" d="M355,250c0,0,23,1,40.4-14.6c13.9-12.5,24.2-33.3,27.1-42.4c2.9-9.1,4.2-27.3-0.2-30.3
					c-4.4-3-84,72.7-84,72.7L355,250z"/>
				<path class="st162" d="M252,200.7c0,0,9.6-10.9,35.5-10.8c20.2,0,86.3,18.2,86.3,18.2l-28.8,30.8L252,200.7z"/>
				<g>
					<polygon class="st128" points="372.4,244.6 359,238.8 354.4,247.5 360.5,252.5 370.7,252.5 					"/>
					<path class="st128" d="M361.9,253.2c0,0,4.5,0.6,7.9-3.4c3.4-4,1.4-5.7,3.6-5.9c2.2-0.2,11.5,4.1,20.9,3.1
						c9.4-1,12.2-2.4,12.7,1.1c0.5,3.5-0.7,16.4-12,15.9C383.6,263.4,361.9,253.2,361.9,253.2z"/>
					<path class="st244" d="M360.5,252.5c0,0,4.5,0.6,7.9-3.4c3.4-4,1.4-5.7,3.6-5.9c2.2-0.2,11.5,4.1,20.9,3.1
						c9.4-1,12.2-2.4,12.7,1.1c0.5,3.5-0.7,16.4-12,15.9C382.2,262.8,360.5,252.5,360.5,252.5z"/>
				</g>
				<path class="st162" d="M287.5,205.2c14.7,8.9,75.2,29.2,75.2,29.2s2.3,15.6-10.8,20.2c0,0-73-20.6-90.3-28.5
					c-17.3-7.9-12-21.8-9.6-25.4C254.4,197.1,269.3,194.1,287.5,205.2z"/>
			</g>
			<path class="st245" d="M342.7,97.6c1.4,0.8,2.5,1.9,3.2,3.3c0.8,1.5,1,3.3,0.8,5.1c-0.8,4.6-1.8,11.7-2.9,19.2
				c-1.8,12.1-3.8,25.2-5.6,30.5c-0.4,1.2,5.1,7.5,2.7,10.4c-0.1,0.1-0.7,24.4-0.8,24.5c0,0-2.5,2.3-2.5,2.4c-0.9,0.6-4.4,2-6.2,1.3
				c-2-0.8-46.5,13.6-46.1,13.2c18.7-21.5,34.3-33.5,35.4-35.6c2.3-4.1,0.8-45.8,1.7-54.1c0.4-4,1.9-9.2,4.1-12.5
				c2.1-3.4,5.3-5.5,7.4-7.2C337.1,95.1,338.9,95.6,342.7,97.6z"/>
			<path class="st246" d="M389,162.7c-2.4,6.1-2.9,12.8-1.5,19.3c2.8,12.8-0.4,13.6-0.4,13.6s-15.4,10.7-30.4,12.3
				c-13.4,1.4-24.8,2.3-24.5-9.1l4.3,3.4c0-0.7,0-1.4,0.1-2c0.5-25.6-4.9-26.9-6.2-55.6c-1.4-29.4-8.5-33.3-2.1-41.7
				c9.5-12.4,34.8-18.7,54.9-13.9c15.1,3.5,20,7.5,19.9,18.7c0,3.7-0.6,8.2-1.6,13.7C399,135.4,393.1,152.3,389,162.7z"/>
			<g>
				<path class="st247" d="M373.5,72.2c-5.7,3.8-9.4,6.9-16.8,6.9c-2.8,0-1.7-1.1-4.3-1.7c1.3,0.7-1.3,1.8-0.3,2.1
					c1.9,0.4,3.4,2.1,3.5,4l0.5,8.5l3.3,6.9l5.8-3.7l8.4-5.4l-0.8-13.1C372.7,76.6,371.3,74.5,373.5,72.2z"/>
				<path class="st248" d="M359.9,86.6l0.6,7.9l-1.1,4.4l-3.3-6.9l-0.5-8.5c-0.1-2-1.5-3.6-3.5-4c-2.1-0.5-1.1-2-4.2-5.3
					c-0.2-0.2-0.4-0.4-0.5-0.6c0.4,0.2,0.9,3.2,7.7,4C360.2,78.1,359.5,81.5,359.9,86.6z"/>
			</g>
			<path class="st18" d="M373.4,83.6c0,0,2,1.1,4,4.2c0,0-2.8,1.2-5.2,2.7c-2.2,1.3-12.8,8.8-12.8,8.8l-3.1-6.4
				C356.4,92.9,367.4,85.3,373.4,83.6z"/>
			<path class="st18" d="M356.4,92.9c0,0-3.7,1.3-4.8,4c0,0-1.9-3.6,0.5-10.1c0,0,2-1.9,3.6-2.6L356.4,92.9z"/>
			<g>
				<polygon class="st249" points="372.4,198 300.7,197.4 343.4,213.3 				"/>
				<polygon class="st250" points="343.3,215 374,212.2 374.2,209.6 343,212.6 				"/>
			</g>
			<path class="st247" d="M349.1,192.2l-5.8,3.2c0,0-5.7-4-11.5,0.3c-5.7,4.3,1.2,16.5,5.4,15.3c4.2-1.2,16.6-10.4,16.6-10.4
				L349.1,192.2z"/>
			<polygon class="st128" points="269,214.3 261.9,216.4 340.1,217.1 374.5,207.7 301.6,208.5 			"/>
			<path class="st245" d="M377.2,188.8c-10.9,3.4-22.3,20.8-22.3,20.8l-1-1.6c0,0-5.6-2.5-7.2-7.7c-0.6-2-0.5-8.1-0.5-8.1
				s27.3-13.6,35.6-22.8c4.1-4.5,4.4-8.2,8.3-10.1c-0.1-0.3-0.2-0.6-0.3-0.9c-4.3-12.1-4.1-29.5-5.8-38.3c-0.8-4.2-0.7-8.6,0.3-12.6
				c0.7-2.7,1.9-5.3,3.6-7.7c2.6-3.7,6.2-6.5,10.8-5.4c1.7,0.4,3.3,1.3,4.4,2.6c1.3,1.4,2.2,3.1,2.4,5c1.7,12.7,7.2,47.6,7,55.5
				c0,1.4-0.3,2.6-0.6,3.8c-0.1,0.4-0.2,0.8-0.3,1.2C407.6,173.4,388.1,185.4,377.2,188.8z"/>
			<g>
				<path class="st251" d="M343.3,215l-74.4-6.8c-2.5-0.2-4.5-2.2-4.7-4.6l-5.9-51.8c-0.3-2.8,2-5.1,4.8-4.9l69.6,6.4
					c2.1,0.2,3.7,1.8,4,3.9L343.3,215z"/>
			</g>
			<g>
				<path class="st10" d="M339.1,50.7c-0.2,0-0.1,1.2-1.7,3.1c-1.6,1.9-1.8,5.8-1.7,5.6c0-0.1-3.2-9-2.3-11.1c0.9-2.2,2.8-2.7,3.3-2
					C337.2,46.9,339.1,50.7,339.1,50.7z"/>
				<path class="st57" d="M376.3,65.4c0.2,2.5,0.3,4.7,0.1,6.3c0,0.2-0.1,0.4-0.1,0.7c0,0.2-0.1,0.4-0.2,0.7
					c-1.8,7.1-10.8,17.2-17.2,18c-0.8,0.1-1.7,0.1-2.5,0c-8.8-0.4-14-7.7-17-15.4c-0.1-0.3-0.2-0.5-0.3-0.8
					c-2.6-7.2-3.5-14.5-3.7-17.1c-0.1-0.6-0.1-1-0.1-1c-0.5-2.8-0.1-5,0.2-5.9c0.1-0.3,0.1-0.5,0.1-0.5s0.1,0,0.3-0.1
					c2.5-0.8,19.1-5.9,19.5-5.9c0.4,0,17.2,1.2,17.2,1.2S375.5,57,376.3,65.4z"/>
				<path class="st10" d="M378.7,65c0.2,2.5,0.3,4.7,0.1,6.3c0,0.2-0.1,0.4-0.1,0.7c-1.2,7.1-9.9,18.2-19.7,19.1
					c-0.8,0.1-1.5,0.2-2.2,0.2c-10.6,0.4-14.3-7.6-17.3-15.5c-0.1-0.3-0.2-0.5-0.3-0.8c0,0,3.7,5.9,5.5,6.1c1.8,0.2-0.4-2.1,4.6-4.1
					c3.2-1.2,8-1.1,10.3-0.9c2.1,0.3,5.8,1.3,7.1,1.5c0.3,0,0.6,0,0.8-0.1c1.8-0.9,5.3-6.9,5.9-10.7C373.8,65.4,377.3,64.7,378.7,65
					z"/>
				<path class="st10" d="M328.3,41.8c0,0,0.5,12.8,21.6,7.7c21.1-5.1,19.4,15.8,19.4,15.8s2.9-7,3.8-4.3c0.9,2.7-0.1,9.7-0.1,9.7
					s5.8,0.6,6-2.2c0.1-1.7,0.3-25.9-3.9-31.7c-4.2-5.8-9.1-5.5-9.1-5.5s-5.3-4.4-17.7-0.8c-12.4,3.6-18.9-1-18.9-0.6
					C329.4,30.2,327.4,33.8,328.3,41.8z"/>
			</g>
			<path class="st253" d="M369.1,60.8c-0.2-0.9-4-0.7-6.7-0.4c-2.7,0.3-9.9,1.3-11.5,2.1c-1.5,0.9-1.5,1.5-2.3,1.6
				c-0.8,0.1-0.8-0.5-2.5-1c-1.7-0.5-5.9,0-8.6,0.4c-2.7,0.3-5.3,0.9-5.3,1.8c0,0.9,0.4,2.4,0.9,2.7c0.5,0.2,0.5,0.2,2.5,3.7
				c1.1,1.9,2.9,3,6.4,2.3c4.5-0.9,4.9-4.6,5.4-6.1c0.4-1.6,0.7-1.8,1.4-1.9c0.7-0.1,1.1,0.1,1.9,1.5c0.8,1.4,1.3,4.7,5.8,4.7
				c5.9,0,8.6-1.5,9.6-4.3c1.3-3.8,1-3.8,1.5-4.2c0.2-0.2,1.5-0.6,1.6-1.1C369.3,61.9,369.2,61.3,369.1,60.8z M346,69.4
				c-0.2,1.9-1.6,3.7-4.6,4.1c-2.7,0.3-3.9-0.7-5.3-3.2c-1.2-2.2-1.2-3.9-0.7-4.6c0.5-0.6,2-0.7,5.4-0.9c3.4-0.3,4.5-0.4,5,0.7
				C346,65.9,346.2,67.5,346,69.4z M365.5,66.6c-0.7,2.8-2.1,4.1-5.9,4.6c-5.3,0.6-6.3-0.8-7-2.7s-0.9-3.3-0.8-3.8
				c0.2-1.2,1.3-1.4,4.7-1.9c3.4-0.6,7.9-1.3,8.5-0.8C365.6,62.5,366.1,64.2,365.5,66.6z"/>
			<g>
				<polygon class="st247" points="320,235.9 333.6,230.6 337.9,239.4 331.6,244.2 321.4,243.9 				"/>
				<path class="st254" d="M330.2,244.8c0,0-4.5,0.4-7.7-3.7c-3.2-4.1-1.3-5.7-3.4-6c-2.1-0.3-11.6,3.7-21,2.5
					c-9.3-1.3-12.1-2.8-12.7,0.7c-0.6,3.5,0.2,16.4,11.5,16.3S330.2,244.8,330.2,244.8z"/>
				<path class="st244" d="M331.6,244.2c0,0-4.5,0.4-7.7-3.7c-3.2-4.1-1.3-5.7-3.4-6c-2.1-0.3-11.6,3.7-21,2.5
					c-9.3-1.3-12.1-2.8-12.7,0.7c-0.6,3.5,0.2,16.4,11.5,16.3C309.6,253.8,331.6,244.2,331.6,244.2z"/>
			</g>
			<path class="st162" d="M328.9,226c0,0,34.4-28,48.8-42.8c14.4-14.9,23.5-29.4,40.3-23.6c16.8,5.8-4.3,37-19.7,49.3
				C383,221.1,345,248,345,248S324.7,240.8,328.9,226z"/>
		</g>
		<circle class="st255" cx="297.3" cy="180.9" r="6.1"/>
	</g>
</g>
<g>
	<path class="st162" d="M202.2,27.1c1,0.6,1.7,1.3,2.3,2.3c0.5,1,0.8,2.1,0.8,3.3c0,1.2-0.3,2.3-0.8,3.3c-0.5,1-1.3,1.7-2.3,2.3
		c-1,0.6-2.1,0.8-3.3,0.8c-1.1,0-2-0.2-2.9-0.5c-0.9-0.4-1.6-0.9-2.2-1.6l1.5-1.4c0.9,1,2.1,1.5,3.4,1.5c1.1,0,2-0.3,2.7-1
		c0.7-0.7,1.2-1.5,1.4-2.6h-5.6v-1.8h5.6c-0.2-1-0.7-1.8-1.4-2.4s-1.6-0.9-2.7-0.9c-1.4,0-2.5,0.5-3.4,1.5l-1.5-1.4
		c0.6-0.7,1.3-1.2,2.2-1.6c0.9-0.4,1.8-0.5,2.9-0.5C200.1,26.3,201.2,26.6,202.2,27.1z"/>
	<path class="st162" d="M215,31.3h-3.3V39h-2.2v-7.6h-3.4v-1.9h8.9V31.3z"/>
	<path class="st162" d="M217.8,38.5c-0.8-0.4-1.4-1-1.8-1.7c-0.4-0.7-0.7-1.6-0.7-2.5s0.2-1.8,0.7-2.5c0.4-0.7,1-1.3,1.8-1.7
		c0.8-0.4,1.6-0.6,2.6-0.6c1,0,1.9,0.2,2.6,0.6s1.4,1,1.8,1.7c0.4,0.7,0.7,1.6,0.7,2.5s-0.2,1.8-0.7,2.5c-0.4,0.7-1,1.3-1.8,1.7
		c-0.8,0.4-1.6,0.6-2.6,0.6C219.5,39.1,218.6,38.9,217.8,38.5z M222.5,36.4c0.5-0.5,0.8-1.3,0.8-2.2s-0.3-1.6-0.8-2.2
		c-0.5-0.5-1.2-0.8-2-0.8s-1.5,0.3-2,0.8c-0.5,0.5-0.8,1.3-0.8,2.2s0.3,1.6,0.8,2.2c0.5,0.5,1.2,0.8,2,0.8S221.9,36.9,222.5,36.4z"
		/>
	<path class="st162" d="M241.7,29.4l-4.5,10.3c-0.4,1-0.9,1.8-1.5,2.2c-0.6,0.4-1.3,0.6-2.2,0.6c-0.5,0-0.9-0.1-1.4-0.2
		c-0.5-0.2-0.8-0.4-1.1-0.6l0.9-1.6c0.2,0.2,0.5,0.4,0.8,0.5c0.3,0.1,0.6,0.2,0.9,0.2c0.4,0,0.7-0.1,1-0.3c0.3-0.2,0.5-0.5,0.7-1
		l0.2-0.4l-4.2-9.6h2.3l3,7.1l3-7.1H241.7z"/>
	<path class="st162" d="M252.8,37.1v4h-2.1V39h-7.4v2.1h-2.1v-4h0.4c0.6,0,1-0.4,1.2-1.2s0.4-1.8,0.4-3.2l0.1-3.3h7.9v7.6H252.8z
		 M245.2,35.5c-0.1,0.7-0.4,1.2-0.7,1.5h4.7v-5.7h-3.7l-0.1,1.5C245.4,34,245.3,34.9,245.2,35.5z"/>
	<path class="st162" d="M256.4,38.5c-0.8-0.4-1.4-1-1.8-1.7c-0.4-0.7-0.7-1.6-0.7-2.5s0.2-1.8,0.7-2.5c0.4-0.7,1-1.3,1.8-1.7
		c0.8-0.4,1.6-0.6,2.6-0.6c1,0,1.9,0.2,2.6,0.6s1.4,1,1.8,1.7c0.4,0.7,0.7,1.6,0.7,2.5s-0.2,1.8-0.7,2.5c-0.4,0.7-1,1.3-1.8,1.7
		c-0.8,0.4-1.6,0.6-2.6,0.6C258.1,39.1,257.2,38.9,256.4,38.5z M261.1,36.4c0.5-0.5,0.8-1.3,0.8-2.2s-0.3-1.6-0.8-2.2
		c-0.5-0.5-1.2-0.8-2-0.8s-1.5,0.3-2,0.8c-0.5,0.5-0.8,1.3-0.8,2.2s0.3,1.6,0.8,2.2c0.5,0.5,1.2,0.8,2,0.8S260.5,36.9,261.1,36.4z"
		/>
	<path class="st162" d="M273.9,30.5c0.7,0.4,1.2,0.9,1.6,1.6c0.4,0.7,0.6,1.5,0.6,2.4c0,0.9-0.2,1.7-0.6,2.4c-0.4,0.7-1,1.3-1.8,1.7
		c-0.8,0.4-1.7,0.6-2.6,0.6c-1.7,0-2.9-0.5-3.8-1.6c-0.9-1.1-1.4-2.7-1.4-4.7c0-1.9,0.4-3.4,1.2-4.6c0.8-1.1,2.1-1.9,3.8-2.2
		l4.4-0.9l0.3,2l-4,0.8c-1.2,0.2-2,0.6-2.6,1.2s-0.9,1.4-1,2.4c0.4-0.5,0.9-0.9,1.6-1.2c0.6-0.3,1.3-0.4,2-0.4
		C272.4,29.9,273.2,30.1,273.9,30.5z M273,36.6c0.5-0.5,0.8-1.2,0.8-2s-0.3-1.5-0.8-2s-1.2-0.7-2-0.7c-0.8,0-1.5,0.2-2,0.7
		s-0.8,1.2-0.8,2c0,0.8,0.3,1.5,0.8,2s1.2,0.8,2,0.8S272.5,37.1,273,36.6z"/>
	<path class="st162" d="M278.2,29.4h2.2v3.9h4.8v-3.9h2.2V39h-2.2v-3.8h-4.8V39h-2.2V29.4z"/>
	<path class="st162" d="M292.1,38.5c-0.8-0.4-1.4-1-1.8-1.7c-0.4-0.7-0.7-1.6-0.7-2.5s0.2-1.8,0.7-2.5c0.4-0.7,1-1.3,1.8-1.7
		c0.8-0.4,1.6-0.6,2.6-0.6c1,0,1.9,0.2,2.6,0.6s1.4,1,1.8,1.7c0.4,0.7,0.7,1.6,0.7,2.5s-0.2,1.8-0.7,2.5c-0.4,0.7-1,1.3-1.8,1.7
		c-0.8,0.4-1.6,0.6-2.6,0.6C293.8,39.1,292.9,38.9,292.1,38.5z M296.8,36.4c0.5-0.5,0.8-1.3,0.8-2.2s-0.3-1.6-0.8-2.2
		c-0.5-0.5-1.2-0.8-2-0.8s-1.5,0.3-2,0.8c-0.5,0.5-0.8,1.3-0.8,2.2s0.3,1.6,0.8,2.2c0.5,0.5,1.2,0.8,2,0.8S296.3,36.9,296.8,36.4z"
		/>
	<path class="st162" d="M302,38.7c-0.3-0.3-0.4-0.6-0.4-1s0.1-0.7,0.4-1s0.6-0.4,1-0.4c0.4,0,0.7,0.1,1,0.4c0.3,0.3,0.4,0.6,0.4,1
		s-0.1,0.7-0.4,1c-0.3,0.3-0.6,0.4-1,0.4C302.6,39.1,302.3,39,302,38.7z M301.7,26.5h2.6l-0.4,8.4h-1.8L301.7,26.5z"/>
</g>
</svg>
