<?xml version="1.0"?>
<svg xmlns="http://www.w3.org/2000/svg" xmlns:xlink="http://www.w3.org/1999/xlink" xmlns:svgjs="http://svgjs.com/svgjs" version="1.1" width="512" height="512" x="0" y="0" viewBox="0 0 512 512" style="enable-background:new 0 0 512 512" xml:space="preserve" class=""><g><g xmlns="http://www.w3.org/2000/svg"><g><g><g><path d="m325.976 504.501h-275.968c-9.513 0-17.225-7.712-17.225-17.225v-462.552c0-9.513 7.712-17.225 17.225-17.225h328c9.513 0 17.225 7.712 17.225 17.225v406.467z" fill="#fae348" data-original="#e8edf2" style="" class=""/></g><g><path d="m395.237 24.719v406.471l-69.258 73.307h-19.997l69.258-73.307v-406.471c0-9.508-7.719-17.217-17.227-17.217h19.997c9.509 0 17.227 7.709 17.227 17.217z" fill="#d9e7ec" data-original="#d9e7ec" style="" class=""/></g><g><path d="m325.976 504.501v-53.548c0-10.914 8.848-19.762 19.762-19.762h49.496z" fill="#c5d3dd" data-original="#c5d3dd" style=""/></g><g><path d="m395.237 431.19-16.677 17.647h-42.813c-3.549 0-6.889.94-9.768 2.58v-.46c0-10.918 8.849-19.767 19.757-19.767z" fill="#b6c4cf" data-original="#b6c4cf" style=""/></g></g><g><g><circle cx="395.232" cy="309.201" fill="#ededed" r="83.986" data-original="#fe646f" style="" class=""/></g><g><path d="m479.221 309.203c0 46.382-37.604 83.986-83.986 83.986-16.547 0-31.975-4.779-44.972-13.048 8.509 2.909 17.647 4.489 27.145 4.489 46.382 0 83.986-37.604 83.986-83.986 0-29.845-15.567-56.05-39.033-70.948 33.074 11.279 56.86 42.614 56.86 79.507z" fill="#fd4755" data-original="#fd4755" style=""/></g></g><g><path d="m439.757 294.204h-24.238c-2.92 0-5.286-2.367-5.286-5.286v-24.238c0-2.92-2.367-5.286-5.286-5.286h-19.422c-2.92 0-5.286 2.367-5.286 5.286v24.238c0 2.92-2.367 5.286-5.286 5.286h-24.239c-2.92 0-5.286 2.367-5.286 5.286v19.422c0 2.92 2.367 5.286 5.286 5.286h24.239c2.92 0 5.286 2.367 5.286 5.286v24.239c0 2.92 2.367 5.286 5.286 5.286h19.422c2.92 0 5.286-2.367 5.286-5.286v-24.239c0-2.92 2.367-5.286 5.286-5.286h24.238c2.92 0 5.286-2.367 5.286-5.286v-19.422c0-2.919-2.367-5.286-5.286-5.286z" fill="#fae348" data-original="#e8edf2" style="" class=""/></g><g><path d="m398.449 324.198h17.067c-2.919 0-5.279 2.37-5.279 5.289v24.236c0 2.919-2.369 5.289-5.289 5.289h-17.078c2.919 0 5.289-2.37 5.289-5.289v-24.236c0-2.919 2.37-5.289 5.29-5.289z" fill="#d9e7ec" data-original="#d9e7ec" style="" class=""/></g><g><path d="m415.516 294.203h-17.067c-2.919 0-5.289-2.37-5.289-5.289v-24.236c0-2.919-2.369-5.289-5.289-5.289h17.077c2.92 0 5.289 2.37 5.289 5.289v24.236c0 2.92 2.359 5.289 5.279 5.289z" fill="#d9e7ec" data-original="#d9e7ec" style="" class=""/></g><g><path d="m445.041 299.492v19.417c0 2.919-2.36 5.289-5.279 5.289h-17.077c2.919 0 5.289-2.37 5.289-5.289v-19.417c0-2.92-2.37-5.289-5.289-5.289h17.077c2.919 0 5.279 2.37 5.279 5.289z" fill="#d9e7ec" data-original="#d9e7ec" style="" class=""/></g><g><circle cx="89.718" cy="246.25" fill="#ededed" r="20.27" data-original="#fe646f" style="" class=""/></g><g><circle cx="89.718" cy="322.312" fill="#ededed" r="20.27" data-original="#fe646f" style="" class=""/></g><g><circle cx="89.718" cy="398.374" fill="#ededed" r="20.27" data-original="#fe646f" style="" class=""/></g><g><path d="m109.988 246.251c0 11.198-9.079 20.266-20.267 20.266-7.869 0-14.697-4.479-18.047-11.028.83.11 1.68.16 2.539.16 11.188 0 20.267-9.078 20.267-20.266 0-3.329-.8-6.469-2.23-9.238 9.999 1.24 17.738 9.768 17.738 20.106z" fill="#fd4755" data-original="#fd4755" style=""/></g><g><path d="m109.988 322.308c0 11.198-9.079 20.277-20.267 20.277-7.869 0-14.687-4.479-18.037-11.028.83.11 1.67.16 2.529.16 11.188 0 20.267-9.078 20.267-20.276 0-3.329-.8-6.469-2.24-9.238 9.999 1.239 17.748 9.777 17.748 20.105z" fill="#fd4755" data-original="#fd4755" style=""/></g><g><path d="m109.988 398.375c0 11.198-9.079 20.267-20.267 20.267-7.869 0-14.697-4.479-18.047-11.028.83.11 1.68.16 2.539.16 11.188 0 20.267-9.078 20.267-20.267 0-3.329-.8-6.469-2.23-9.238 9.999 1.24 17.738 9.768 17.738 20.106z" fill="#fd4755" data-original="#fd4755" style=""/></g><g><path d="m317.609 125.785c-2.802-3.049-7.547-3.248-10.595-.446l-8.767 8.058v-3.038c0-4.141-3.357-7.499-7.499-7.499-4.141 0-7.499 3.357-7.499 7.499v39.67c0 4.141 3.357 7.499 7.499 7.499 4.141 0 7.499-3.357 7.499-7.499v-4.292l10.043 9.689c1.455 1.404 3.331 2.102 5.206 2.102 1.964 0 3.926-.767 5.398-2.292 2.875-2.98 2.791-7.728-.19-10.603l-15.748-15.193 14.208-13.059c3.048-2.803 3.247-7.547.445-10.596z" fill="#000000" data-original="#000000" style="" class=""/><path d="m158.939 122.86c-4.141 0-7.499 3.357-7.499 7.499v11.656h-12.454v-11.656c0-4.141-3.357-7.499-7.499-7.499-4.141 0-7.499 3.357-7.499 7.499v39.67c0 4.141 3.357 7.499 7.499 7.499 4.141 0 7.499-3.357 7.499-7.499v-13.017h12.454v13.017c0 4.141 3.357 7.499 7.499 7.499 4.141 0 7.499-3.357 7.499-7.499v-39.67c0-4.141-3.357-7.499-7.499-7.499z" fill="#000000" data-original="#000000" style="" class=""/><path d="m205.211 138.22c4.141 0 7.499-3.357 7.499-7.499 0-4.141-3.357-7.499-7.499-7.499h-16.563c-4.141 0-7.499 3.357-7.499 7.499v39.308c0 4.141 3.357 7.499 7.499 7.499h16.563c4.141 0 7.499-3.357 7.499-7.499s-3.357-7.499-7.499-7.499h-9.064v-4.656h7.842c4.141 0 7.499-3.357 7.499-7.499s-3.357-7.499-7.499-7.499h-7.842v-4.656z" fill="#000000" data-original="#000000" style="" class=""/><path d="m89.283 177.528c6.097 0 11.585-2.019 15.872-5.837.841-.748 1.638-1.571 2.37-2.444 2.66-3.174 2.244-7.904-.93-10.564s-7.904-2.244-10.564.931c-.266.317-.551.612-.85.878-1.541 1.372-3.471 2.04-5.898 2.04-6.802 0-12.336-5.534-12.336-12.336s5.534-12.336 12.336-12.336c2.473 0 4.856.727 6.891 2.102 3.432 2.318 8.092 1.417 10.411-2.015 2.318-3.431 1.416-8.093-2.015-10.411-4.525-3.057-9.811-4.673-15.287-4.673-15.072 0-27.334 12.262-27.334 27.334 0 15.069 12.262 27.331 27.334 27.331z" fill="#000000" data-original="#000000" style="" class=""/><path d="m224.316 150.51c0 15.072 12.262 27.333 27.334 27.333 6.097 0 11.585-2.019 15.872-5.836.841-.749 1.638-1.571 2.37-2.445 2.66-3.174 2.244-7.903-.93-10.564-3.173-2.661-7.904-2.244-10.564.93-.266.317-.551.612-.85.878-1.541 1.372-3.47 2.039-5.898 2.039-6.802 0-12.336-5.534-12.336-12.336s5.534-12.336 12.336-12.336c2.473 0 4.856.727 6.891 2.102 3.431 2.318 8.093 1.416 10.411-2.015 2.318-3.432 1.416-8.093-2.015-10.411-4.525-3.057-9.811-4.673-15.287-4.673-15.072 0-27.334 12.262-27.334 27.334z" fill="#000000" data-original="#000000" style="" class=""/><path d="m402.732 218.026v-193.302c0-13.633-11.091-24.724-24.724-24.724h-232.383c-4.141 0-7.499 3.357-7.499 7.499s3.357 7.499 7.499 7.499h232.383c5.363 0 9.727 4.364 9.727 9.727v193.315c-9.26.749-18.284 2.866-26.905 6.367-3.837 1.558-5.685 5.932-4.126 9.769 1.558 3.837 5.931 5.685 9.769 4.126 9.132-3.708 18.808-5.588 28.759-5.588 42.175 0 76.487 34.312 76.487 76.487s-34.312 76.487-76.487 76.487-76.487-34.312-76.487-76.487c0-19.826 7.554-38.623 21.27-52.928 2.866-2.989 2.767-7.736-.223-10.602-2.989-2.867-7.736-2.767-10.602.223-16.407 17.111-25.442 39.594-25.442 63.308 0 47.92 37.037 87.349 83.988 91.175v23.316h-41.997c-15.032 0-27.26 12.229-27.26 27.26v46.049h-268.471c-5.363 0-9.727-4.364-9.727-9.727v-462.551c0-5.363 4.364-9.727 9.727-9.727h61.364c4.141 0 7.499-3.357 7.499-7.499s-3.357-7.498-7.499-7.498h-61.364c-13.633 0-24.724 11.091-24.724 24.724v462.551c0 13.633 11.091 24.724 24.724 24.724h275.967c.715 0 1.573-.073 2.229-.384.997-.472 2.459-1.157 3.222-1.966 0 0 69.057-73.097 69.258-73.31 1.291-1.366 2.047-3.269 2.048-5.15v-30.815c46.949-3.828 83.984-43.256 83.984-91.175s-37.035-87.345-83.984-91.173zm-69.257 267.618v-34.691c0-6.762 5.501-12.263 12.263-12.263h32.096z" fill="#000000" data-original="#000000" style="" class=""/><path d="m404.945 251.894h-19.422c-7.05 0-12.785 5.735-12.785 12.785v22.026h-22.027c-7.05 0-12.785 5.735-12.785 12.785v19.422c0 7.05 5.735 12.785 12.785 12.785h22.027v22.027c0 7.05 5.735 12.785 12.785 12.785h19.422c7.05 0 12.785-5.735 12.785-12.785v-22.027h22.026c7.05 0 12.785-5.735 12.785-12.785v-19.422c0-7.05-5.735-12.785-12.785-12.785h-22.026v-22.026c0-7.05-5.735-12.785-12.785-12.785zm32.599 49.809v14.997h-22.026c-7.05 0-12.785 5.735-12.785 12.785v22.027h-14.997v-22.027c0-7.05-5.735-12.785-12.785-12.785h-22.027v-14.997h22.027c7.05 0 12.785-5.735 12.785-12.785v-22.026h14.997v22.026c0 7.05 5.735 12.785 12.785 12.785z" fill="#000000" data-original="#000000" style="" class=""/><path d="m89.718 218.481c-15.312 0-27.769 12.457-27.769 27.769s12.457 27.769 27.769 27.769 27.769-12.457 27.769-27.769-12.457-27.769-27.769-27.769zm0 40.54c-7.042 0-12.771-5.729-12.771-12.771s5.729-12.771 12.771-12.771 12.771 5.729 12.771 12.771-5.729 12.771-12.771 12.771z" fill="#000000" data-original="#000000" style="" class=""/><path d="m131.943 229.288c0 4.141 3.357 7.499 7.499 7.499h124.703c4.141 0 7.499-3.357 7.499-7.499 0-4.141-3.357-7.499-7.499-7.499h-124.703c-4.142 0-7.499 3.357-7.499 7.499z" fill="#000000" data-original="#000000" style="" class=""/><path d="m139.442 270.712h101.299c4.141 0 7.499-3.357 7.499-7.499s-3.357-7.499-7.499-7.499h-101.299c-4.141 0-7.499 3.357-7.499 7.499s3.357 7.499 7.499 7.499z" fill="#000000" data-original="#000000" style="" class=""/><path d="m89.718 294.543c-15.312 0-27.769 12.457-27.769 27.769s12.457 27.769 27.769 27.769 27.769-12.457 27.769-27.769-12.457-27.769-27.769-27.769zm0 40.54c-7.042 0-12.771-5.729-12.771-12.771s5.729-12.771 12.771-12.771 12.771 5.729 12.771 12.771-5.729 12.771-12.771 12.771z" fill="#000000" data-original="#000000" style="" class=""/><path d="m264.145 297.851h-124.703c-4.141 0-7.499 3.357-7.499 7.499s3.357 7.499 7.499 7.499h124.703c4.141 0 7.499-3.357 7.499-7.499s-3.358-7.499-7.499-7.499z" fill="#000000" data-original="#000000" style="" class=""/><path d="m139.442 346.773h101.299c4.141 0 7.499-3.357 7.499-7.499s-3.357-7.499-7.499-7.499h-101.299c-4.141 0-7.499 3.357-7.499 7.499s3.357 7.499 7.499 7.499z" fill="#000000" data-original="#000000" style="" class=""/><path d="m89.718 370.605c-15.312 0-27.769 12.457-27.769 27.769s12.457 27.769 27.769 27.769 27.769-12.457 27.769-27.769-12.457-27.769-27.769-27.769zm0 40.54c-7.042 0-12.771-5.729-12.771-12.771s5.729-12.771 12.771-12.771 12.771 5.729 12.771 12.771-5.729 12.771-12.771 12.771z" fill="#000000" data-original="#000000" style="" class=""/><path d="m271.644 381.411c0-4.141-3.357-7.499-7.499-7.499h-124.703c-4.141 0-7.499 3.357-7.499 7.499 0 4.141 3.357 7.499 7.499 7.499h124.703c4.141 0 7.499-3.357 7.499-7.499z" fill="#000000" data-original="#000000" style="" class=""/><path d="m139.442 407.838c-4.141 0-7.499 3.357-7.499 7.499 0 4.141 3.357 7.499 7.499 7.499h101.299c4.141 0 7.499-3.357 7.499-7.499 0-4.141-3.357-7.499-7.499-7.499z" fill="#000000" data-original="#000000" style="" class=""/></g></g><g><path d="m219.275 93.374-17.004-45.059c-.026-.069-.053-.137-.081-.206-1.322-3.213-4.419-5.288-7.893-5.288-.003 0-.006 0-.009 0-3.477.004-6.575 2.086-7.89 5.305-.023.056-.045.112-.067.169l-17.161 45.057c-1.474 3.87.468 8.203 4.339 9.677 3.871 1.476 8.202-.469 9.677-4.339l2.434-6.392h17.22l2.404 6.371c1.134 3.003 3.987 4.853 7.017 4.853.879 0 1.775-.156 2.646-.485 3.875-1.462 5.83-5.788 4.368-9.663zm-27.943-16.073 2.937-7.713 2.911 7.713z" fill="#000000" data-original="#000000" style="" class=""/><path d="m240.741 42.092c-4.141 0-7.499 3.357-7.499 7.499v45.662c0 3.654 2.633 6.776 6.235 7.391.536.092.874.15 6.041.15 2.469 0 6.043-.014 11.268-.042 4.141-.024 7.48-3.399 7.457-7.541-.023-4.127-3.376-7.457-7.498-7.457-.014 0-.029 0-.043 0-2.858.016-5.862.028-8.462.034v-38.197c0-4.142-3.358-7.499-7.499-7.499z" fill="#000000" data-original="#000000" style="" class=""/><path d="m69.448 42.092c-4.141 0-7.499 3.357-7.499 7.499v45.701c0 4.141 3.357 7.499 7.499 7.499 4.141 0 7.499-3.357 7.499-7.499v-16.136h16.628v16.136c0 4.141 3.357 7.499 7.499 7.499 4.141 0 7.499-3.357 7.499-7.499v-45.701c0-4.142-3.357-7.499-7.499-7.499-4.141 0-7.499 3.357-7.499 7.499v14.568h-16.628v-14.568c0-4.142-3.358-7.499-7.499-7.499z" fill="#000000" data-original="#000000" style="" class=""/><path d="m327.478 42.092c-4.141 0-7.499 3.357-7.499 7.499v45.701c0 4.141 3.357 7.499 7.499 7.499 4.141 0 7.499-3.357 7.499-7.499v-16.136h16.628v16.136c0 4.141 3.357 7.499 7.499 7.499 4.141 0 7.499-3.357 7.499-7.499v-45.701c0-4.142-3.357-7.499-7.499-7.499-4.141 0-7.499 3.357-7.499 7.499v14.568h-16.628v-14.568c-.001-4.142-3.358-7.499-7.499-7.499z" fill="#000000" data-original="#000000" style="" class=""/><path d="m129.901 102.791h19.081c4.141 0 7.499-3.357 7.499-7.499 0-4.141-3.357-7.499-7.499-7.499h-11.582v-7.645h10.175c4.141 0 7.499-3.357 7.499-7.499s-3.357-7.499-7.499-7.499h-10.175v-7.645h11.582c4.141 0 7.499-3.357 7.499-7.499s-3.357-7.499-7.499-7.499h-19.081c-4.141 0-7.499 3.357-7.499 7.499v45.284c.001 4.143 3.358 7.501 7.499 7.501z" fill="#000000" data-original="#000000" style="" class=""/><path d="m303.056 42.092h-25.238c-4.141 0-7.499 3.357-7.499 7.499 0 4.141 3.357 7.499 7.499 7.499h5.069v38.203c0 4.141 3.357 7.499 7.499 7.499 4.141 0 7.499-3.357 7.499-7.499v-38.204h5.172c4.141 0 7.499-3.357 7.499-7.499-.001-4.141-3.359-7.498-7.5-7.498z" fill="#000000" data-original="#000000" style="" class=""/></g></g></g></svg>
