<svg height="512" viewBox="0 0 512 512" width="512" xmlns="http://www.w3.org/2000/svg"><g id="Credit_card-4" data-name="Credit card"><path d="m440 289.61v-145.61a40.045 40.045 0 0 0 -40-40h-352a40.045 40.045 0 0 0 -40 40v192a40.045 40.045 0 0 0 40 40h296.4a80 80 0 1 0 95.6-86.39zm-392-169.61h352a24.027 24.027 0 0 1 24 24h-400a24.027 24.027 0 0 1 24-24zm-24 40h400v32h-400zm24 200a24.027 24.027 0 0 1 -24-24v-128h400v80a80.11 80.11 0 0 0 -79.6 72zm376 72a64 64 0 1 1 64-64 64.072 64.072 0 0 1 -64 64z"/><path d="m136 224h-88a8 8 0 0 0 -8 8v40a8 8 0 0 0 8 8h88a8 8 0 0 0 8-8v-40a8 8 0 0 0 -8-8zm-8 40h-72v-24h72z"/><path d="m136 288h-88a8 8 0 0 0 0 16h88a8 8 0 0 0 0-16z"/><path d="m88 312h-40a8 8 0 0 0 0 16h40a8 8 0 0 0 0-16z"/><path d="m120 312h-8a8 8 0 0 0 0 16h8a8 8 0 0 0 0-16z"/><path d="m450.745 345.968-41.4 36.065-11.66-11.66a8 8 0 1 0 -11.315 11.313l16.941 16.941a8 8 0 0 0 10.913.376l47.029-40.971a8 8 0 0 0 -10.51-12.064z"/></g></svg>